<?xml version="1.0" encoding="UTF-8" standalone="no"?>
<!-- Created with Inkscape (http://www.inkscape.org/) -->

<svg
   version="1.1"
   id="svg2564"
   width="2560"
   height="1440"
   viewBox="0 0 2560 1440"
   sodipodi:docname="dont-be-late-logo-dark.svg"
   inkscape:version="1.2.1 (9c6d41e410, 2022-07-14)"
   xmlns:inkscape="http://www.inkscape.org/namespaces/inkscape"
   xmlns:sodipodi="http://sodipodi.sourceforge.net/DTD/sodipodi-0.dtd"
   xmlns="http://www.w3.org/2000/svg"
   xmlns:svg="http://www.w3.org/2000/svg">
  <defs
     id="defs2568">
    <inkscape:path-effect
       effect="bspline"
       id="path-effect8418"
       is_visible="true"
       lpeversion="1"
       weight="33.333333"
       steps="2"
       helper_size="0"
       apply_no_weight="true"
       apply_with_weight="true"
       only_selected="false" />
    <clipPath
       clipPathUnits="userSpaceOnUse"
       id="clipPath2852">
      <g
         id="g2856"
         transform="translate(-616.6139,-599.0569)">
        <path
           d="M 0,1080 H 1920 V 0 H 0 Z"
           id="path2854" />
      </g>
    </clipPath>
    <clipPath
       clipPathUnits="userSpaceOnUse"
       id="clipPath2858">
      <g
         id="g2862"
         transform="translate(-661.5172,-598.7417)">
        <path
           d="M 0,1080 H 1920 V 0 H 0 Z"
           id="path2860" />
      </g>
    </clipPath>
    <clipPath
       clipPathUnits="userSpaceOnUse"
       id="clipPath2864">
      <g
         id="g2868"
         transform="translate(-611.7064,-693)">
        <path
           d="M 0,1080 H 1920 V 0 H 0 Z"
           id="path2866" />
      </g>
    </clipPath>
    <clipPath
       clipPathUnits="userSpaceOnUse"
       id="clipPath2870">
      <g
         id="g2874"
         transform="translate(-738.5,-602.5)">
        <path
           d="M 0,1080 H 1920 V 0 H 0 Z"
           id="path2872" />
      </g>
    </clipPath>
    <clipPath
       clipPathUnits="userSpaceOnUse"
       id="clipPath2876">
      <g
         id="g2880"
         transform="translate(-738.5,-602.5001)">
        <path
           d="M 0,1080 H 1920 V 0 H 0 Z"
           id="path2878" />
      </g>
    </clipPath>
    <inkscape:path-effect
       effect="bspline"
       id="path-effect11350"
       is_visible="true"
       lpeversion="1"
       weight="33.333333"
       steps="2"
       helper_size="0"
       apply_no_weight="true"
       apply_with_weight="true"
       only_selected="false" />
  </defs>
  <sodipodi:namedview
     id="namedview2566"
     pagecolor="#ffffff"
     bordercolor="#000000"
     borderopacity="0.25"
     inkscape:showpageshadow="2"
     inkscape:pageopacity="0.0"
     inkscape:pagecheckerboard="0"
     inkscape:deskcolor="#d1d1d1"
     showgrid="false"
     inkscape:zoom="0.5"
     inkscape:cx="757"
     inkscape:cy="423"
     inkscape:window-width="1440"
     inkscape:window-height="830"
     inkscape:window-x="-6"
     inkscape:window-y="-6"
     inkscape:window-maximized="1"
     inkscape:current-layer="g2572">
    <inkscape:page
       x="0"
       y="0"
       id="page2570"
       width="2560"
       height="1440" />
  </sodipodi:namedview>
  <g
     id="g2572"
     inkscape:groupmode="layer"
     inkscape:label="Page 1"
     transform="matrix(1.3333333,0,0,-1.3333333,0,1440)">
    <g
       id="g619">
      <g
         aria-label="on't"
         transform="scale(1,-1)"
         id="text4419"
         style="font-weight:bold;font-size:250px;font-family:'comic neue';-inkscape-font-specification:'comic neue Bold';text-align:center;text-anchor:middle;fill:none;stroke:#000000;stroke-width:7.5;stroke-linejoin:round">
        <path
           style="color:#000000;-inkscape-font-specification:'Century Gothic';fill:#000000;stroke:none;stroke-linejoin:miter;-inkscape-stroke:none"
           d="m 260.91797,-975.2207 c -18.20251,0 -34.5874,6.44601 -48.5332,19.03125 a 3.750375,3.750375 0 0 0 -0.01,0.01 c -15.90864,14.46241 -24.05469,32.9857 -24.05469,54.6543 0,20.23506 7.1709,37.85017 21.22461,52.07422 a 3.750375,3.750375 0 0 0 0.0156,0.0156 c 14.13207,14.13209 31.55077,21.36328 51.48047,21.36328 13.52906,0 26.07053,-3.22153 37.375,-9.64453 a 3.750375,3.750375 0 0 0 0.0176,-0.0117 c 11.29839,-6.50512 20.28683,-15.58446 26.78125,-27.03515 6.56815,-11.43771 9.88868,-23.85568 9.88868,-37.00586 0,-13.07208 -3.28181,-25.37504 -9.7793,-36.66016 -6.51019,-11.30716 -15.67469,-20.33488 -27.28125,-26.90625 -11.51615,-6.56594 -23.97185,-9.88476 -37.125,-9.88476 z m 0,7.5 c 11.90754,0 22.96666,2.94402 33.41992,8.90625 a 3.750375,3.750375 0 0 0 0.0117,0.006 c 10.52883,5.96118 18.61696,13.9439 24.47656,24.12109 5.87228,10.19923 8.77735,21.08772 8.77735,32.91797 0,11.90753 -2.94527,22.92219 -8.90235,33.28906 a 3.750375,3.750375 0 0 0 -0.01,0.0176 c -5.87491,10.35837 -13.81323,18.3679 -23.99805,24.23242 -8e-4,4.6e-4 -0.001,0.001 -0.002,0.002 -10.1747,5.77676 -21.30833,8.65625 -33.65039,8.65625 -18.14872,0 -33.27945,-6.27501 -46.16211,-19.15039 l -0.008,-0.008 c -0.003,-0.003 -0.005,-0.005 -0.008,-0.008 -12.79109,-12.95354 -19.04297,-28.29285 -19.04297,-46.78711 0,-19.83051 7.06937,-35.89065 21.58985,-49.0957 l 0.01,-0.01 c 12.74425,-11.49692 27.03711,-17.08984 43.49805,-17.08984 z m 0.48828,23.87109 c -11.21126,0 -21.02825,4.10796 -28.58984,12.02539 a 3.750375,3.750375 0 0 0 -0.002,0 c -7.51194,7.86965 -11.29101,18.18641 -11.29101,30.17774 0,12.2866 3.70895,22.75456 11.15429,30.64843 a 3.750375,3.750375 0 0 0 0.0156,0.0156 c 7.49282,7.84962 17.31577,11.90429 28.5918,11.9043 11.28579,0 21.14622,-4.10265 28.71289,-12.0254 7.59561,-7.95306 11.41406,-18.39082 11.41406,-30.54296 0,-12.1348 -3.76933,-22.49558 -11.29297,-30.29688 -7.42343,-7.86222 -17.29479,-11.90625 -28.71289,-11.90625 z m 0,7.5 c 9.73326,0 17.18941,3.11587 23.27344,9.56641 a 3.750375,3.750375 0 0 0 0.0293,0.0312 c 6.13777,6.35697 9.20313,14.46224 9.20313,25.10547 0,10.63428 -3.09889,18.83068 -9.33789,25.36328 -6.26796,6.56292 -13.74155,9.70508 -23.28906,9.70508 -9.55164,0 -16.97938,-3.10677 -23.15625,-9.57227 -6.06049,-6.42829 -9.10547,-14.67366 -9.10547,-25.49609 0,-10.46898 3.05761,-18.545 9.21679,-24.99805 6.27304,-6.56823 13.70673,-9.70508 23.16602,-9.70508 z"
           id="path1901" />
        <path
           style="color:#000000;-inkscape-font-specification:'Century Gothic';fill:#000000;stroke:none;stroke-linejoin:miter;-inkscape-stroke:none"
           d="m 431.20703,-975.2207 c -6.9114,0 -13.71611,1.36462 -20.31445,4.05273 -0.001,5.2e-4 -0.003,0.001 -0.004,0.002 -4.81563,1.92676 -9.98651,5.23445 -15.36133,9.19336 v -6.08007 a 3.750375,3.750375 0 0 0 -3.75,-3.75 h -33.20312 a 3.750375,3.750375 0 0 0 -3.75,3.75 v 132.8125 a 3.750375,3.750375 0 0 0 3.75,3.75 h 33.20312 a 3.750375,3.750375 0 0 0 3.75,-3.75 v -53.34571 c 0,-13.74638 0.60144,-22.87302 1.36524,-26.11914 a 3.750375,3.750375 0 0 0 0,-0.002 c 1.74443,-7.43278 4.7494,-12.90492 8.91601,-16.78906 a 3.750375,3.750375 0 0 0 0.002,-0.002 c 4.25225,-3.96876 8.98725,-5.82812 14.89843,-5.82812 4.54427,0 7.94506,1.13628 10.73438,3.3418 a 3.750375,3.750375 0 0 0 0.0762,0.0586 c 2.83528,2.12645 4.85383,5.21763 6.07227,9.80469 a 3.750375,3.750375 0 0 0 0.0137,0.0527 c 1.19609,4.25276 2.05859,14.84587 2.05859,30.59961 v 58.22852 a 3.750375,3.750375 0 0 0 3.75,3.75 h 32.95899 a 3.750375,3.750375 0 0 0 3.75,-3.75 v -87.76954 c 0,-15.93111 -4.08965,-28.62225 -12.68164,-37.30468 a 3.750375,3.750375 0 0 0 -0.0137,-0.0137 c -9.82953,-9.82954 -22.16521,-14.89258 -36.2207,-14.89258 z m 0,7.5 c 12.30779,0 22.3476,4.13061 30.9082,12.6875 6.86655,6.94255 10.50782,17.35968 10.50782,32.02343 v 84.01954 h -25.45899 v -54.47852 c 0,-15.96166 -0.60413,-26.43219 -2.33203,-32.59961 -1.54557,-5.80242 -4.47737,-10.58615 -8.77734,-13.82617 -4.20313,-3.30766 -9.49141,-4.93164 -15.34571,-4.93164 -7.59698,0 -14.50064,2.69919 -20.01367,7.84375 -5.43622,5.06767 -9.10445,12.04477 -11.10351,20.5625 -1.18908,5.05489 -1.56446,13.91239 -1.56446,27.83398 v 49.59571 h -25.70312 v -125.3125 h 25.70312 v 9.79882 a 3.750375,3.750375 0 0 0 6.16016,2.87305 c 7.36943,-6.18081 13.931,-10.35053 19.49023,-12.57422 a 3.750375,3.750375 0 0 0 0.0234,-0.01 c 5.76415,-2.35117 11.56733,-3.50586 17.50586,-3.50586 z"
           id="path1903" />
        <path
           style="color:#000000;-inkscape-font-specification:'comic neue Bold';fill:#000000;stroke:none;stroke-linejoin:miter;-inkscape-stroke:none"
           d="m 499.98437,-1023.0723 a 3.750375,3.750375 0 0 0 -3.72851,4.1563 l 6.71289,61.52342 a 3.750375,3.750375 0 0 0 3.72852,3.34375 h 19.04296 a 3.750375,3.750375 0 0 0 3.72852,-3.34375 l 6.71289,-61.52342 a 3.750375,3.750375 0 0 0 -3.72656,-4.1563 z m 4.17969,7.5 h 24.10938 l -5.89649,54.02347 h -12.3164 z"
           id="path1905" />
        <path
           style="color:#000000;-inkscape-font-specification:'Century Gothic';fill:#000000;stroke:none;stroke-linejoin:miter;-inkscape-stroke:none"
           d="m 567.68164,-1020.7539 a 3.750375,3.750375 0 0 0 -3.75,3.75 v 45.20117 H 550.5918 a 3.750375,3.750375 0 0 0 -3.75,3.75 v 28.68554 a 3.750375,3.750375 0 0 0 3.75,3.75 h 13.33984 v 100.37696 a 3.750375,3.750375 0 0 0 3.75,3.75 h 33.20313 a 3.750375,3.750375 0 0 0 3.75,-3.75 v -100.37696 h 16.02539 a 3.750375,3.750375 0 0 0 3.75,-3.75 v -28.68554 a 3.750375,3.750375 0 0 0 -3.75,-3.75 h -16.02539 v -45.20117 a 3.750375,3.750375 0 0 0 -3.75,-3.75 z m 3.75,7.5 h 25.70313 v 45.20117 a 3.750375,3.750375 0 0 0 3.75,3.75 h 16.02539 v 21.18554 h -16.02539 a 3.750375,3.750375 0 0 0 -3.75,3.75 v 100.37696 h -25.70313 v -100.37696 a 3.750375,3.750375 0 0 0 -3.75,-3.75 H 554.3418 v -21.18554 h 13.33984 a 3.750375,3.750375 0 0 0 3.75,-3.75 z"
           id="path1907" />
      </g>
      <g
         id="g12992"
         transform="translate(-681.92913,277.89297)"
         style="stroke:#000000">
        <g
           id="g9882"
           transform="translate(-129.72298,135.30256)">
          <g
             id="g2590"
             transform="matrix(0.48901525,0,0,0.48901525,912.7674,526.92857)"
             clip-path="url(#clipPath2864)"
             style="stroke-width:15.3369"
             inkscape:transform-center-y="-29.02664">
            <path
               style="color:#000000;fill:#000000;stroke:none;stroke-linecap:round;stroke-miterlimit:10;-inkscape-stroke:none"
               d="m 0,-84.435547 a 7.6684499,7.6684499 0 0 0 -7.6679687,7.669922 V 12.269531 A 7.6684499,7.6684499 0 0 0 0,19.9375 7.6684499,7.6684499 0 0 0 7.6679687,12.269531 V -76.765625 A 7.6684499,7.6684499 0 0 0 0,-84.435547 Z"
               id="path2592" />
          </g>
          <g
             id="g2594"
             transform="matrix(0.43037754,0.23218761,-0.23218761,0.43037754,940.0943,495.01818)"
             clip-path="url(#clipPath2858)"
             style="stroke-width:15.3369"
             inkscape:transform-center-x="-12.853371"
             inkscape:transform-center-y="-6.9343595">
            <path
               style="color:#000000;fill:#000000;stroke:none;stroke-linecap:round;stroke-miterlimit:10;-inkscape-stroke:none"
               d="M -44.798828,-7.6679687 A 7.6684499,7.6684499 0 0 0 -52.466797,0 7.6684499,7.6684499 0 0 0 -44.798828,7.6679687 H 0 A 7.6684499,7.6684499 0 0 0 7.6679687,0 7.6684499,7.6684499 0 0 0 0,-7.6679687 Z"
               id="path2596" />
          </g>
          <g
             id="g2598"
             transform="matrix(0.48901525,0,0,0.48901525,915.16724,480.98897)"
             clip-path="url(#clipPath2852)"
             style="stroke-width:23.0054">
            <path
               style="color:#000000;fill:#000000;stroke:none;stroke-miterlimit:10;-inkscape-stroke:none"
               d="m -4.5566406,-18.052734 c -9.8094974,0 -18.0546874,8.2432368 -18.0546874,18.052734 0,9.8094972 8.24519,18.052734 18.0546874,18.052734 9.8094971,0 18.0527346,-8.2432368 18.0527346,-18.052734 0,-9.8094972 -8.2432375,-18.052734 -18.0527346,-18.052734 z m 0,9.1132809 c 4.77550216,0 8.9394531,4.1639509 8.9394531,8.9394531 0,4.7755022 -4.16395094,8.9394531 -8.9394531,8.9394531 -4.7755022,0 -8.9394534,-4.1639509 -8.9394534,-8.9394531 0,-4.7755022 4.1639512,-8.9394531 8.9394534,-8.9394531 z"
               id="path2600" />
          </g>
        </g>
        <path
           style="color:#000000;fill:#000000;stroke:none;stroke-dasharray:22.5, 7.5;-inkscape-stroke:none"
           d="m 561.29297,-818.11914 c -1.32142,2.40503 -2.51073,4.88965 -3.54883,7.43945 l 6.94727,2.82813 c 0.92552,-2.27329 1.98773,-4.49751 3.17382,-6.65625 z m 125.91992,1.97656 -6.68164,3.40821 c 2.53069,4.9635 4.41345,10.25979 5.56836,15.70507 0.31424,1.48256 0.5764,2.97105 0.78125,4.46289 l 7.42969,-1.01953 c -0.23081,-1.68087 -0.52521,-3.3478 -0.875,-4.99804 -1.29296,-6.09617 -3.39463,-12.01191 -6.22266,-17.5586 z m -132.04297,12.92969 c -0.23506,0.82062 -0.44792,1.63602 -0.64648,2.44141 v 0.002 c -1.68983,6.87857 -2.33942,14.0018 -1.92774,21.07031 l 7.48828,-0.43555 c -0.36799,-6.31836 0.21343,-12.69754 1.72266,-18.84179 v -0.002 c 0.18189,-0.73767 0.37161,-1.46066 0.57422,-2.16796 z m 139.78906,17.50781 -7.49609,0.19922 c 0.18891,7.07695 -0.81574,14.19545 -2.95312,20.94531 l 7.15039,2.26563 c 2.39101,-7.55081 3.51019,-15.49172 3.29882,-23.41016 z m -134.07226,12.62305 -7.39844,1.22656 c 0.10163,0.61396 0.21337,1.20471 0.32422,1.77539 v 0.002 0.004 c 1.40798,7.18277 3.9249,14.14225 7.44922,20.5625 l 6.57422,-3.60937 c -3.14835,-5.73535 -5.40284,-11.97233 -6.66211,-18.39649 v 0.008 c -0.10539,-0.5426 -0.20353,-1.06728 -0.28711,-1.57226 z m 121.11719,15.14844 c -2.54632,5.75422 -5.96034,11.13183 -10.08399,15.88476 -0.52167,0.6002 -1.04479,1.18312 -1.57226,1.74414 l 5.46484,5.13672 c 0.6124,-0.65135 1.19967,-1.30719 1.76953,-1.96289 l 0.002,-0.002 v -0.002 c 4.61547,-5.3198 8.42735,-11.32318 11.27735,-17.76367 z m -110.41407,10.83398 -6.15234,4.28906 c 0.37,0.53084 0.74094,1.03627 1.10352,1.52539 l 0.002,0.002 0.002,0.004 c 4.35494,5.85749 9.61299,11.02342 15.52539,15.28907 l 4.38672,-6.08204 c -5.29062,-3.81705 -10.00179,-8.44838 -13.89062,-13.67773 l -0.004,-0.006 c -0.3403,-0.45914 -0.66749,-0.90593 -0.97266,-1.34375 z m 93.63477,11.70117 c -3.28368,2.81623 -6.85523,5.30085 -10.63867,7.39649 -2.41183,1.33574 -4.91055,2.5132 -7.47461,3.52343 l 2.74804,6.97852 c 2.86898,-1.13037 5.66282,-2.44798 8.35938,-3.94141 4.22992,-2.34294 8.21898,-5.11638 11.88867,-8.26367 z m -72.80274,7.14258 -3.68945,6.53125 c 2.85898,1.61521 5.82811,3.02821 8.88086,4.23047 h 0.002 c 4.31413,1.69834 8.79291,2.97459 13.35743,3.80078 l 1.33593,-7.38086 c -4.07805,-0.73813 -8.08698,-1.87966 -11.94531,-3.39844 h -0.002 c -2.73062,-1.07548 -5.38655,-2.34091 -7.93946,-3.7832 z m 47.9668,6.00195 c -4.01335,1.08715 -8.13983,1.77633 -12.29297,2.06055 -2.9155,0.19922 -5.84349,0.19929 -8.75781,-0.002 l -0.51758,7.48242 c 3.25802,0.22497 6.53001,0.22451 9.78711,0.002 4.63906,-0.31747 9.249,-1.08561 13.74219,-2.30273 z"
           id="path2934"
           transform="rotate(90)" />
        <path
           style="color:#000000;fill:#000000;stroke:none;stroke-linejoin:bevel;-inkscape-stroke:none"
           d="m 786.24805,552.4707 c -16.40587,-0.54294 -32.82804,4.58375 -46.24024,15.0625 l 4.61719,5.91016 c 19.21297,-15.01082 45.28127,-17.75069 67.19531,-7.0625 12.88609,6.28496 23.52969,17.63248 29.66602,30.125 l 6.73242,-3.30664 c -6.84828,-13.94193 -18.51292,-26.43847 -33.11133,-33.5586 -9.17865,-4.47672 -19.01585,-6.84415 -28.85937,-7.16992 z m 54.74218,97.99414 -26.02539,108.58985 -14.79492,-3.78711 c 0.0172,-4.27718 -1.61997,-8.44367 -4.74805,-11.47461 -4.03252,-3.90727 -9.88207,-5.31328 -15.25,-3.66602 -4.1487,1.27313 -7.49516,4.22043 -9.42773,8.01758 l -14.85742,-3.57226 14.09961,-58.63868 -7.29297,-1.7539 -14.97461,62.28711 2.76953,4.52148 21.67578,5.21094 4.52344,-2.76953 c 0.70995,-2.95295 2.89496,-5.27706 5.68359,-6.13282 2.78865,-0.85575 5.73712,-0.14703 7.83203,1.88282 2.0949,2.02984 2.98534,5.0939 2.2754,8.04687 l 2.71679,4.50977 21.59961,5.52734 4.57617,-2.75976 26.91211,-112.29102 z"
           id="path6128" />
        <path
           style="color:#000000;fill:#000000;stroke:none;stroke-linejoin:bevel;-inkscape-stroke:none"
           d="m 848.09766,592.87305 -7.05079,2.55468 c 0.70303,1.93993 1.32077,3.61898 2.53907,8.4375 1.21828,4.81846 2.89037,12.35182 2.57422,20.30274 -0.31615,7.95075 -2.68189,16.97379 -5.14649,26.20312 l 7.2461,1.9336 c 2.46459,-9.22934 5.02979,-18.66508 5.39453,-27.83789 0.36473,-9.17266 -1.53075,-17.42403 -2.79883,-22.43946 -1.26807,-5.01537 -2.05478,-7.21436 -2.75781,-9.15429 z"
           id="path11348" />
        <path
           style="color:#000000;fill:#000000;stroke:none;stroke-linejoin:round;-inkscape-stroke:none"
           d="m 761.11133,749.67773 -2.76172,11.12305 a 1.1251125,1.1251125 0 0 0 0.82617,1.36328 l 44.7207,10.91797 a 1.1251125,1.1251125 0 0 0 1.35938,-0.82031 l 2.76172,-11.12305 -2.18555,-0.54297 -2.49023,10.03516 -42.53516,-10.38477 2.48828,-10.02734 z"
           id="path12226-4" />
      </g>
      <g
         aria-label="be late"
         transform="scale(1,-1)"
         id="text12253"
         style="font-size:80.2013px;font-family:'Century Gothic';-inkscape-font-specification:'Century Gothic';text-align:center;text-anchor:middle;stroke-width:6.01509;stroke-linejoin:round">
        <path
           d="m 367.56396,-824.6337 v 21.14683 q 2.8979,-2.8979 6.26573,-4.34685 3.36783,-1.44895 7.20559,-1.44895 8.34125,0 14.1762,6.30489 5.83496,6.30489 5.83496,16.17341 0,9.51607 -6.03076,15.93844 -6.03076,6.38321 -14.29369,6.38321 -3.68111,0 -6.85314,-1.29231 -3.17202,-1.33146 -6.30489,-4.30768 v 4.50349 h -10.61257 v -59.05448 z m 11.23915,25.21955 q -5.05174,0 -8.38041,3.44615 -3.32867,3.44615 -3.32867,9.00698 0,5.67832 3.32867,9.20279 3.32867,3.48531 8.38041,3.48531 4.8951,0 8.22377,-3.56363 3.36783,-3.56363 3.36783,-9.08531 0,-5.48251 -3.28951,-8.96782 -3.28951,-3.52447 -8.30209,-3.52447 z"
           id="path1911" />
        <path
           d="m 452.58204,-783.78899 h -34.34401 q 0.74405,4.54265 3.95524,7.24474 3.25034,2.66294 8.26292,2.66294 5.99161,0 10.29929,-4.19021 l 9.00698,4.22937 q -3.36782,4.77762 -8.06712,7.0881 -4.69929,2.27133 -11.16082,2.27133 -10.02517,0 -16.33005,-6.30489 -6.30489,-6.34405 -6.30489,-15.86012 0,-9.75104 6.26572,-16.17341 6.30489,-6.46153 15.7818,-6.46153 10.06433,0 16.36922,6.46153 6.30488,6.42237 6.30488,16.99579 z m -10.73006,-8.41957 q -1.05734,-3.56363 -4.1902,-5.7958 -3.0937,-2.23216 -7.20559,-2.23216 -4.46433,0 -7.83215,2.50629 -2.11469,1.56643 -3.91608,5.52167 z"
           id="path1913" />
        <path
           d="m 482.54005,-824.6337 h 10.69089 v 59.05448 h -10.69089 z"
           id="path1915" />
        <path
           d="m 534.38894,-808.18617 h 10.65173 v 42.60695 h -10.65173 v -4.50349 q -3.13287,2.97622 -6.30489,4.30768 -3.13286,1.29231 -6.81398,1.29231 -8.26293,0 -14.29369,-6.38321 -6.03076,-6.42237 -6.03076,-15.93844 0,-9.86852 5.83496,-16.17341 5.83496,-6.30489 14.17621,-6.30489 3.83775,0 7.20558,1.44895 3.36783,1.44895 6.22657,4.34685 z m -11.23915,8.77202 q -4.97342,0 -8.26293,3.52447 -3.2895,3.48531 -3.2895,8.96782 0,5.52168 3.32866,9.08531 3.36783,3.56363 8.26293,3.56363 5.05174,0 8.38041,-3.48531 3.32867,-3.52447 3.32867,-9.20279 0,-5.56083 -3.32867,-9.00698 -3.32867,-3.44615 -8.41957,-3.44615 z"
           id="path1917" />
        <path
           d="m 557.14136,-823.88964 h 10.65173 v 15.70347 h 6.34405 v 9.20279 h -6.34405 v 33.40416 h -10.65173 v -33.40416 h -5.48252 v -9.20279 h 5.48252 z"
           id="path1919" />
        <path
           d="m 622.57904,-783.78899 h -34.34402 q 0.74406,4.54265 3.95524,7.24474 3.25035,2.66294 8.26293,2.66294 5.9916,0 10.29929,-4.19021 l 9.00698,4.22937 q -3.36783,4.77762 -8.06712,7.0881 -4.6993,2.27133 -11.16083,2.27133 -10.02516,0 -16.33005,-6.30489 -6.30489,-6.34405 -6.30489,-15.86012 0,-9.75104 6.26573,-16.17341 6.30489,-6.46153 15.7818,-6.46153 10.06432,0 16.36921,6.46153 6.30489,6.42237 6.30489,16.99579 z m -10.73006,-8.41957 q -1.05734,-3.56363 -4.19021,-5.7958 -3.0937,-2.23216 -7.20558,-2.23216 -4.46433,0 -7.83216,2.50629 -2.11468,1.56643 -3.91608,5.52167 z"
           id="path1921" />
      </g>
    </g>
  </g>
</svg>
